<svg width="24" height="24" viewBox="0 0 24 24" fill="none" xmlns="http://www.w3.org/2000/svg">
<path d="M12.3954 18.218L12.1654 20.587C12.0744 21.539 11.1854 22.185 10.2874 21.953C8.93635 21.603 7.98735 20.348 7.98735 18.909V15.874C7.98735 15.199 7.98735 14.861 7.84135 14.614C7.75941 14.4741 7.64524 14.3558 7.50835 14.269C7.26835 14.118 6.94135 14.118 6.28835 14.118H5.89235C4.18935 14.118 3.33835 14.118 2.81435 13.728C2.41855 13.4313 2.1419 13.0028 2.03435 12.52C1.88835 11.87 2.21535 11.057 2.87035 9.43299L3.19735 8.62299C3.38535 8.15499 3.46235 7.64799 3.42235 7.14299C3.19035 4.26899 5.46935 1.84799 8.25535 2.00799L18.6794 2.60599C19.8184 2.67099 20.3874 2.70399 20.9014 3.15899C21.4164 3.61399 21.5134 4.08299 21.7064 5.01999C22.1173 7.01336 22.0986 9.07144 21.6514 11.057C21.3684 12.305 20.1764 12.977 18.9454 12.817C15.6814 12.397 12.7224 14.836 12.3954 18.217V18.218Z" stroke="#555555" stroke-width="2" stroke-linecap="round" stroke-linejoin="round"/>
<path d="M17 12.5L17.137 12.043C18.024 9.087 17.977 5.928 17 3" stroke="#555555" stroke-width="2" stroke-linecap="round" stroke-linejoin="round"/>
</svg>
