<svg width="40" height="41" viewBox="0 0 40 41" fill="none" xmlns="http://www.w3.org/2000/svg">
<g clip-path="url(#clip0_71_24)">
<path d="M20 40.4997C21.3261 40.4997 22.5979 39.973 23.5355 39.0353C24.4732 38.0976 25 36.8258 25 35.4997H15C15 36.8258 15.5268 38.0976 16.4645 39.0353C17.4021 39.973 18.6739 40.4997 20 40.4997ZM20 5.29475L18.0075 5.69725C15.7474 6.15775 13.7158 7.385 12.2566 9.1713C10.7974 10.9576 10.0002 13.1932 10 15.4997C10 17.0697 9.665 20.9922 8.8525 24.8547C8.4525 26.7722 7.9125 28.7697 7.195 30.4997H32.805C32.0875 28.7697 31.55 26.7747 31.1475 24.8547C30.335 20.9922 30 17.0697 30 15.4997C29.9992 13.1936 29.2017 10.9586 27.7426 9.17283C26.2834 7.38705 24.2522 6.16016 21.9925 5.69975L20 5.29225V5.29475ZM35.55 30.4997C36.1075 31.6172 36.7525 32.5022 37.5 32.9997H2.5C3.2475 32.5022 3.8925 31.6172 4.45 30.4997C6.7 25.9997 7.5 17.6997 7.5 15.4997C7.5 9.44975 11.8 4.39975 17.5125 3.24725C17.4776 2.89963 17.516 2.54856 17.6251 2.21668C17.7342 1.8848 17.9117 1.57947 18.1461 1.32039C18.3804 1.06131 18.6665 0.854232 18.9858 0.712507C19.3052 0.570782 19.6506 0.497559 20 0.497559C20.3494 0.497559 20.6948 0.570782 21.0142 0.712507C21.3335 0.854232 21.6196 1.06131 21.8539 1.32039C22.0883 1.57947 22.2658 1.8848 22.3749 2.21668C22.484 2.54856 22.5224 2.89963 22.4875 3.24725C25.3132 3.822 27.8534 5.35565 29.6781 7.5885C31.5027 9.82135 32.4996 12.6162 32.5 15.4997C32.5 17.6997 33.3 25.9997 35.55 30.4997Z" fill="#FFC241"/>
</g>
<defs>
<clipPath id="clip0_71_24">
<rect width="40" height="40" fill="white" transform="translate(0 0.5)"/>
</clipPath>
</defs>
</svg>
