<svg width="17" height="18" viewBox="0 0 17 18" fill="none" xmlns="http://www.w3.org/2000/svg">
<path d="M17.0003 1.89698L15.5605 0.457245L0.000286587 16.0175L1.44003 17.4572L17.0003 1.89698Z" fill="#999999"/>
<path d="M16.4379 3.91563C16.4379 3.83732 16.4379 3.75901 16.4379 3.68069L12.9922 7.12643C15.0283 6.42162 16.4379 5.24694 16.4379 3.91563Z" fill="#999999"/>
<path d="M8.60662 0C4.29944 0 0.775391 1.72287 0.775391 3.91561C0.775391 5.79511 3.43801 7.36135 6.96206 7.75291L13.6969 1.01806C12.3656 0.313249 10.5644 0 8.60662 0Z" fill="#999999"/>
<path d="M8.6073 12.6866C12.9145 12.6866 16.4385 10.9637 16.4385 8.77097V8.69266V5.7951C16.4385 7.6746 13.8542 9.16253 10.4085 9.6324L7.43262 12.6083C7.82418 12.6866 8.21574 12.6866 8.6073 12.6866Z" fill="#999999"/>
<path d="M0.775391 5.87341V8.77097V8.84928C0.775391 9.94565 1.63683 10.9637 3.12476 11.6685L5.3175 9.47578C2.65488 8.77097 0.775391 7.43966 0.775391 5.87341Z" fill="#999999"/>
<path d="M0.775391 10.7288V13.6263V13.7047C0.775391 13.783 0.775391 13.8613 0.775391 13.9396L1.87176 12.8432C1.24526 12.1384 0.775391 11.5119 0.775391 10.7288Z" fill="#999999"/>
<path d="M8.60709 17.6203C12.9143 17.6203 16.4383 15.8974 16.4383 13.7047V13.6263V10.7288C16.4383 12.9215 12.9143 14.6444 8.60709 14.6444C7.58903 14.6444 6.57097 14.5661 5.70953 14.3312L3.43848 16.6022C4.8481 17.2287 6.64928 17.6203 8.60709 17.6203Z" fill="#999999"/>
</svg>
