<svg width="20" height="20" viewBox="0 0 20 20" fill="none" xmlns="http://www.w3.org/2000/svg">
<path d="M19.5115 9.38324C19.4825 9.19256 19.3869 9.01833 19.2415 8.8916C19.0961 8.76486 18.9105 8.69385 18.7177 8.6912H14.0566C13.8407 8.6912 13.6336 8.77698 13.4809 8.92966C13.3282 9.08235 13.2424 9.28943 13.2424 9.50536C13.2424 9.72129 13.3282 9.92838 13.4809 10.0811C13.6336 10.2337 13.8407 10.3195 14.0566 10.3195H16.6619L11.9398 14.7363L11.8787 14.7974V0.814212C11.8787 0.598283 11.7929 0.391198 11.6403 0.238514C11.4876 0.0858294 11.2805 5.21756e-05 11.0646 5.21756e-05H1.51853C1.35495 -0.00179949 1.1946 0.045673 1.05839 0.136282C0.922179 0.22689 0.816424 0.356432 0.754909 0.508022C0.693395 0.659611 0.678974 0.826217 0.713528 0.986121C0.748082 1.14603 0.830006 1.29181 0.948623 1.40448L3.43181 3.78589L0.948623 6.18766C0.830006 6.30033 0.748082 6.44611 0.713528 6.60602C0.678974 6.76592 0.693395 6.93253 0.754909 7.08412C0.816424 7.23571 0.922179 7.36525 1.05839 7.45586C1.1946 7.54647 1.35495 7.59394 1.51853 7.59209H10.23V14.3089C9.80204 13.8047 9.19955 13.4806 8.54298 13.4014C7.8864 13.3222 7.2241 13.4936 6.68845 13.8815L0.338004 18.5222C0.251134 18.585 0.177487 18.6643 0.121267 18.7556C0.0650473 18.8469 0.0273563 18.9483 0.0103459 19.0541C-0.0240081 19.2679 0.0279601 19.4866 0.154818 19.662C0.281676 19.8374 0.473032 19.9553 0.686791 19.9897C0.792633 20.0067 0.900789 20.0027 1.00508 19.9779C1.10938 19.9531 1.20777 19.908 1.29464 19.8452L7.64508 15.2248C7.75346 15.144 7.87715 15.086 8.00862 15.0545C8.1401 15.0229 8.27661 15.0185 8.40987 15.0413C8.54313 15.0641 8.67036 15.1138 8.78382 15.1874C8.89727 15.2609 8.99459 15.3568 9.06986 15.4691C9.28243 15.7837 9.56069 16.0484 9.88548 16.2451C10.2103 16.4418 10.5738 16.5657 10.9511 16.6082C11.3284 16.6508 11.7104 16.611 12.0709 16.4917C12.4313 16.3723 12.7616 16.1762 13.0389 15.9169L17.9035 11.3983V14.1664C17.9035 14.3824 17.9893 14.5894 18.142 14.7421C18.2946 14.8948 18.5017 14.9806 18.7177 14.9806C18.9336 14.9806 19.1407 14.8948 19.2933 14.7421C19.446 14.5894 19.5318 14.3824 19.5318 14.1664V9.50536C19.5332 9.47824 19.5332 9.45107 19.5318 9.42395L19.5115 9.38324ZM5.18225 3.21598L3.53358 1.62837H10.23V5.96377H3.53358L5.18225 4.37616C5.26231 4.3001 5.32607 4.20855 5.36963 4.10707C5.41319 4.0056 5.43566 3.89632 5.43566 3.78589C5.43566 3.67546 5.41319 3.56619 5.36963 3.46471C5.32607 3.36324 5.26231 3.27169 5.18225 3.19563V3.21598Z" fill="#D60000"/>
</svg>
