<svg width="19" height="20" viewBox="0 0 19 20" fill="none" xmlns="http://www.w3.org/2000/svg">
<path d="M16.9132 17.8244C16.9132 17.889 16.9086 17.9513 16.8994 18.0159C16.9086 17.9444 16.9178 17.8729 16.9294 17.8013C16.9132 17.9144 16.8832 18.0228 16.8417 18.129C16.8694 18.0644 16.8971 17.9998 16.9224 17.9352C16.874 18.0482 16.8163 18.1497 16.7425 18.2489C16.784 18.1935 16.8255 18.1405 16.8694 18.0851C16.7956 18.1797 16.7102 18.2651 16.6156 18.3389C16.671 18.2974 16.724 18.2558 16.7794 18.212C16.6825 18.2858 16.5787 18.3435 16.4656 18.392C16.5302 18.3643 16.5948 18.3366 16.6594 18.3112C16.5533 18.3527 16.4449 18.3827 16.3318 18.3989C16.4034 18.3896 16.4749 18.3804 16.5464 18.3689C16.3687 18.392 16.1865 18.3827 16.0088 18.3827C15.6697 18.3827 15.3306 18.3827 14.9891 18.3827C13.8541 18.3827 12.719 18.3827 11.5839 18.3827C10.1974 18.3827 8.80854 18.3827 7.422 18.3827C6.23387 18.3827 5.04573 18.3827 3.85991 18.3827C3.29929 18.3827 2.73868 18.3873 2.17807 18.3827C2.11116 18.3827 2.04195 18.3781 1.97505 18.3689C2.04656 18.3781 2.11808 18.3873 2.1896 18.3989C2.07656 18.3827 1.96812 18.3527 1.862 18.3112C1.9266 18.3389 1.99119 18.3666 2.05579 18.392C1.94275 18.3435 1.84124 18.2858 1.74203 18.212C1.7974 18.2535 1.85046 18.2951 1.90583 18.3389C1.81124 18.2651 1.72588 18.1797 1.65206 18.0851C1.69358 18.1405 1.73511 18.1935 1.77895 18.2489C1.70512 18.152 1.64744 18.0482 1.599 17.9352C1.62668 17.9998 1.65437 18.0644 1.67974 18.129C1.63822 18.0228 1.60822 17.9144 1.59207 17.8013C1.6013 17.8729 1.61053 17.9444 1.62207 18.0159C1.60592 17.8913 1.60592 17.7667 1.62207 17.6399C1.61284 17.7114 1.60361 17.7829 1.59207 17.8544C1.61053 17.7344 1.64052 17.6214 1.68666 17.5084C1.65898 17.573 1.63129 17.6375 1.60592 17.7021C1.65437 17.5937 1.71204 17.4945 1.78356 17.3999C1.74203 17.4553 1.70051 17.5084 1.65667 17.5637C1.7305 17.4714 1.81124 17.3907 1.90353 17.3169C1.84816 17.3584 1.7951 17.3999 1.73973 17.4438C1.83432 17.3722 1.93352 17.3146 2.04195 17.2661C1.97735 17.2938 1.91276 17.3215 1.84816 17.3469C1.9612 17.3007 2.07425 17.2707 2.19422 17.2523C2.1227 17.2615 2.05118 17.2707 1.97966 17.2823C2.08348 17.2707 2.18499 17.2707 2.2888 17.2707C2.48721 17.2707 2.72253 17.1831 2.85865 17.0331C3.01091 16.867 3.07551 16.687 3.09627 16.4633C3.15856 15.7181 3.22085 14.9752 3.28314 14.23C3.38004 13.0742 3.47694 11.9184 3.57614 10.7625C3.60382 10.4303 3.62459 10.0958 3.66842 9.76358C3.65919 9.8351 3.64997 9.90661 3.63843 9.97813C3.71687 9.41752 3.86452 8.87075 4.08369 8.34935C4.05601 8.41395 4.02832 8.47855 4.00295 8.54315C4.2175 8.03559 4.49665 7.55803 4.83118 7.122C4.78965 7.17737 4.74812 7.23043 4.70429 7.2858C5.04573 6.84515 5.43793 6.45065 5.87858 6.1092C5.82321 6.15073 5.77015 6.19226 5.71478 6.23609C6.15773 5.89465 6.64221 5.61088 7.15669 5.39171C7.09209 5.4194 7.02749 5.44708 6.96289 5.47246C7.30895 5.32711 7.66424 5.21176 8.02875 5.12871C7.95723 5.13794 7.88572 5.14716 7.8142 5.1587C8.65627 5.1587 9.50065 5.1587 10.3427 5.1587C10.465 5.1587 10.5873 5.1587 10.7072 5.1587C10.6357 5.14947 10.5642 5.14024 10.4927 5.12871C10.8572 5.21407 11.2125 5.32942 11.5585 5.47246C11.4939 5.44477 11.4293 5.41709 11.3648 5.39171C11.8792 5.61088 12.3614 5.89465 12.8044 6.23609C12.749 6.19457 12.6959 6.15304 12.6406 6.1092C13.072 6.44373 13.4572 6.83131 13.7918 7.26042C13.7502 7.20506 13.7087 7.15199 13.6649 7.09662C14.0086 7.54188 14.2924 8.02637 14.5116 8.54315C14.4839 8.47855 14.4562 8.41395 14.4308 8.34935C14.6477 8.87075 14.7976 9.41752 14.8761 9.97813C14.8669 9.90661 14.8576 9.8351 14.8461 9.76358C14.9499 10.5411 14.9868 11.3301 15.0514 12.1099C15.1506 13.2864 15.2498 14.4654 15.349 15.6419C15.3721 15.9165 15.3952 16.1887 15.4182 16.4633C15.4367 16.6709 15.4944 16.8854 15.6559 17.0331C15.8127 17.1784 16.0088 17.2707 16.2257 17.2707C16.3295 17.2707 16.431 17.2707 16.5349 17.2823C16.4633 17.273 16.3918 17.2638 16.3203 17.2523C16.4403 17.2707 16.5533 17.3007 16.6664 17.3469C16.6018 17.3192 16.5372 17.2915 16.4726 17.2661C16.581 17.3146 16.6802 17.3722 16.7748 17.4438C16.7194 17.4022 16.6664 17.3607 16.611 17.3169C16.7033 17.3907 16.784 17.4714 16.8578 17.5637C16.8163 17.5084 16.7748 17.4553 16.731 17.3999C16.8025 17.4945 16.8602 17.5937 16.9086 17.7021C16.8809 17.6375 16.8532 17.573 16.8279 17.5084C16.874 17.6214 16.904 17.7344 16.9224 17.8544C16.9132 17.7829 16.904 17.7114 16.8925 17.6399C16.9063 17.7021 16.9109 17.7644 16.9132 17.8244C16.9178 18.2466 17.28 18.6527 17.7207 18.6319C18.1544 18.6134 18.5351 18.2766 18.5282 17.8244C18.5189 17.2107 18.2605 16.5763 17.7737 16.1841C17.513 15.9719 17.2293 15.8034 16.8971 15.7204C16.6779 15.6673 16.4541 15.6512 16.2303 15.6512C16.5003 15.9211 16.7679 16.1887 17.0378 16.4586C16.9847 15.8219 16.9317 15.1875 16.8763 14.5507C16.784 13.4572 16.6917 12.3659 16.5995 11.2724C16.5279 10.4257 16.4933 9.56056 16.2719 8.73924C15.8081 7.01588 14.6984 5.5186 13.2104 4.54272C12.8851 4.32816 12.539 4.1459 12.1814 3.99133C11.9415 3.88751 11.6993 3.79062 11.4501 3.70987C11.2148 3.63374 10.9564 3.54607 10.7072 3.53684C10.3658 3.52069 10.022 3.53684 9.6806 3.53684C9.1569 3.53684 8.6332 3.53684 8.1095 3.53684C8.0103 3.53684 7.91109 3.53453 7.81189 3.53684C7.55581 3.54376 7.28127 3.64066 7.03903 3.7214C6.78987 3.80215 6.54993 3.90136 6.31 4.00517C4.75966 4.67191 3.43772 5.95002 2.71792 7.47729C2.32341 8.31013 2.09271 9.17758 2.01427 10.0958C1.99812 10.2919 1.98197 10.488 1.96582 10.6818C1.88046 11.7084 1.79279 12.7328 1.70743 13.7594C1.63591 14.613 1.56439 15.4666 1.49287 16.3202C1.48826 16.3687 1.48595 16.4148 1.48134 16.4633C1.75126 16.1933 2.01888 15.9257 2.2888 15.6558C1.88738 15.6558 1.52286 15.7273 1.16066 15.9026C0.777685 16.0872 0.424706 16.4425 0.237835 16.8255C0.00943627 17.2961 -0.0528542 17.7829 0.044042 18.2951C0.117868 18.6873 0.339345 19.0702 0.618498 19.354C1.02685 19.7716 1.599 19.9977 2.18037 20C2.26112 20 2.33956 20 2.42031 20C2.83327 20 3.24854 20 3.6615 20C4.32363 20 4.98575 20 5.64787 20C6.46226 20 7.27435 20 8.08874 20C8.94465 20 9.80288 20 10.6588 20C11.464 20 12.2691 20 13.072 20C13.7156 20 14.3593 20 15.003 20C15.3883 20 15.7758 20 16.1611 20C16.2234 20 16.288 20 16.3503 20C17.1047 19.9931 17.783 19.6078 18.1936 18.9803C18.4128 18.6434 18.5189 18.2282 18.5235 17.829C18.5282 17.4068 18.1475 17.0031 17.7161 17.0216C17.2777 17.0377 16.9178 17.3722 16.9132 17.8244Z" fill="#FB8A2E"/>
<path d="M11.4174 0.941435C11.0068 1.81581 10.5984 2.69249 10.1878 3.56686C10.1301 3.69144 10.0724 3.81372 10.0147 3.9383C10.2477 3.80449 10.4784 3.67068 10.7115 3.53918C9.86938 3.53918 9.025 3.53918 8.18292 3.53918C8.06065 3.53918 7.93838 3.53918 7.81841 3.53918C8.05142 3.67299 8.28213 3.8068 8.51514 3.9383C8.11833 3.03855 7.72382 2.13649 7.32701 1.23674C7.27164 1.10985 7.21627 0.982962 7.1609 0.858381C7.18858 0.922979 7.21627 0.987576 7.24165 1.05217C7.23934 1.04295 7.23472 1.03372 7.23242 1.02218C7.24165 1.0937 7.25087 1.16522 7.26241 1.23674C7.25779 1.21828 7.25779 1.19983 7.26241 1.17906C7.25318 1.25058 7.24395 1.3221 7.23242 1.39362C7.23472 1.38439 7.23934 1.37516 7.24165 1.36824C7.21396 1.43284 7.18628 1.49744 7.1609 1.56203C7.16551 1.55511 7.17013 1.54588 7.17474 1.53896C7.13321 1.59433 7.09169 1.64739 7.04785 1.70276C7.05939 1.68661 7.07092 1.67508 7.08707 1.66585C7.0317 1.70738 6.97864 1.7489 6.92327 1.79274C6.9325 1.78812 6.93942 1.78351 6.94865 1.7812C6.88405 1.80889 6.81945 1.83657 6.75486 1.86195C6.76409 1.85964 6.77331 1.85734 6.78254 1.85503C6.71102 1.86426 6.6395 1.87348 6.56799 1.88502C6.57721 1.88502 6.58644 1.88271 6.59798 1.88271C6.52646 1.87348 6.45494 1.86426 6.38342 1.85272C6.49185 1.86887 6.60028 1.90578 6.70641 1.93347C6.89789 1.98422 7.09169 2.03498 7.28317 2.08573C7.39391 2.11573 7.50234 2.14341 7.61308 2.1734C8.05834 2.28645 8.49899 2.29106 8.94886 2.2057C9.19341 2.15956 9.43104 2.06266 9.65482 1.95423C9.83939 1.86426 10.0032 1.74198 10.1924 1.65893C10.1278 1.68661 10.0632 1.7143 9.99857 1.73968C10.1693 1.66816 10.3446 1.61971 10.5269 1.59433C10.4554 1.60356 10.3839 1.61279 10.3123 1.62432C10.49 1.60125 10.6653 1.60125 10.843 1.62202C10.7714 1.61279 10.6999 1.60356 10.6284 1.59202C11.0321 1.64739 11.4289 1.81581 11.8165 1.9427C11.7519 1.91501 11.6873 1.88733 11.6227 1.86195C11.6412 1.86887 11.6597 1.8781 11.6735 1.89194C11.6181 1.85041 11.5651 1.80889 11.5097 1.76505C11.5166 1.77197 11.5235 1.7789 11.5281 1.78582C11.4866 1.73045 11.4451 1.67739 11.4013 1.62202C11.4059 1.63124 11.4105 1.63817 11.4151 1.64739C11.3874 1.5828 11.3597 1.5182 11.3344 1.4536C11.3367 1.46283 11.339 1.47206 11.3436 1.48129C11.3344 1.40977 11.3251 1.33825 11.3136 1.26673C11.3182 1.28519 11.3182 1.30595 11.3136 1.32441C11.3228 1.25289 11.3321 1.18137 11.3436 1.10985C11.3413 1.11908 11.3367 1.12831 11.3344 1.13984C11.1982 1.53896 11.4912 2.03959 11.8973 2.13418C12.3448 2.23569 12.744 1.99807 12.8916 1.57126C12.9747 1.32441 12.9308 1.0291 12.797 0.809933C12.6678 0.595377 12.4717 0.466182 12.241 0.385435C12.1764 0.362365 12.1118 0.343909 12.0472 0.323145C11.8534 0.260855 11.6597 0.196257 11.4682 0.133967C11.0068 -0.0159917 10.5315 -0.0321412 10.0563 0.0462987C9.79094 0.0901327 9.54408 0.184722 9.29954 0.300075C9.10805 0.39005 8.93964 0.516937 8.74584 0.602298C8.81044 0.574614 8.87504 0.546929 8.93964 0.521552C8.77122 0.590763 8.59819 0.639211 8.42055 0.666896C8.49207 0.657668 8.56359 0.64844 8.63511 0.636904C8.44131 0.662282 8.24983 0.662282 8.05603 0.636904C8.12755 0.646132 8.19907 0.655361 8.27059 0.666896C7.86686 0.604606 7.46774 0.470797 7.07554 0.366979C7.00633 0.348523 6.93942 0.330066 6.87021 0.31161C6.5403 0.23317 6.18271 0.286232 5.93355 0.537701C5.75821 0.715344 5.63594 0.959892 5.64286 1.21597C5.64747 1.39823 5.69592 1.52051 5.76744 1.68661C5.77667 1.70968 5.7882 1.73275 5.79743 1.75583C6.12503 2.501 6.45263 3.24849 6.78023 3.99367C6.89328 4.24975 7.00633 4.50814 7.11937 4.76422C7.23011 5.01569 7.55771 5.16334 7.8161 5.16334C8.65818 5.16334 9.50256 5.16334 10.3446 5.16334C10.4669 5.16334 10.5892 5.16334 10.7091 5.16334C10.9745 5.16334 11.2882 5.01338 11.4059 4.76422C11.8165 3.88985 12.2249 3.01317 12.6355 2.1388C12.6932 2.01421 12.7509 1.89194 12.8086 1.76736C12.9032 1.56665 12.9516 1.36593 12.8893 1.14446C12.8386 0.957585 12.6932 0.754564 12.5179 0.662282C12.331 0.563079 12.1026 0.51463 11.895 0.581535C11.7104 0.629983 11.5051 0.752257 11.4174 0.941435Z" fill="#FB8A2E"/>
<path d="M10.072 15.6489C10.072 15.2751 10.072 14.9014 10.072 14.5254C10.072 14.1032 9.70053 13.6994 9.2645 13.7179C8.82616 13.7364 8.45703 14.0732 8.45703 14.5254C8.45703 14.8991 8.45703 15.2728 8.45703 15.6489C8.45703 16.0711 8.82847 16.4748 9.2645 16.4563C9.70053 16.4379 10.072 16.1034 10.072 15.6489Z" fill="#FB8A2E"/>
<path d="M10.072 9.30678C10.072 8.93995 10.072 8.57312 10.072 8.2086C10.072 7.78641 9.70053 7.38267 9.2645 7.40112C8.82616 7.41958 8.45703 7.75641 8.45703 8.2086C8.45703 8.57543 8.45703 8.94226 8.45703 9.30678C8.45703 9.72898 8.82847 10.1327 9.2645 10.1143C9.70053 10.0935 10.072 9.75897 10.072 9.30678Z" fill="#FB8A2E"/>
<path d="M7.54459 15.3351C8.269 15.3351 8.99342 15.3374 9.72014 15.3351C10.6706 15.3305 11.5358 14.7215 11.8126 13.8033C12.1541 12.6728 11.3997 11.4224 10.2508 11.1709C9.93239 11.1017 9.62094 11.1109 9.30026 11.1109C9.06955 11.1109 8.83192 11.1271 8.60122 11.0971C8.67274 11.1063 8.74426 11.1155 8.81577 11.1271C8.69119 11.1086 8.57123 11.074 8.45587 11.0256C8.52047 11.0532 8.58507 11.0809 8.64967 11.1063C8.54816 11.0602 8.45126 11.0048 8.36128 10.9356C8.41665 10.9771 8.46972 11.0186 8.52509 11.0625C8.43742 10.9933 8.36128 10.9171 8.28977 10.8318C8.33129 10.8871 8.37282 10.9402 8.41665 10.9956C8.34283 10.8987 8.28284 10.7972 8.2344 10.6864C8.26208 10.751 8.28977 10.8156 8.31514 10.8802C8.27362 10.7764 8.24593 10.668 8.22978 10.5572C8.23901 10.6287 8.24824 10.7003 8.25977 10.7718C8.24824 10.6587 8.24824 10.5457 8.26439 10.4327C8.25516 10.5042 8.24593 10.5757 8.2344 10.6472C8.25055 10.5411 8.28054 10.4396 8.31976 10.3381C8.29207 10.4027 8.26439 10.4673 8.23901 10.5319C8.28746 10.4234 8.34514 10.3242 8.41896 10.2296C8.37743 10.285 8.33591 10.3381 8.29207 10.3934C8.35898 10.3104 8.4328 10.2366 8.51586 10.172C8.46049 10.2135 8.40743 10.255 8.35206 10.2988C8.44665 10.2273 8.54816 10.1673 8.65889 10.1189C8.5943 10.1466 8.5297 10.1743 8.4651 10.1996C8.58045 10.1535 8.69581 10.1212 8.81808 10.1027C8.74656 10.112 8.67504 10.1212 8.60353 10.1327C8.88499 10.0981 9.18029 10.1189 9.46175 10.1189C9.8701 10.1189 10.2784 10.1189 10.6868 10.1189C10.786 10.1189 10.8852 10.1189 10.9821 10.1189C11.4043 10.1189 11.808 9.74746 11.7896 9.31142C11.7711 8.87308 11.4343 8.50396 10.9821 8.50396C10.2577 8.50396 9.53327 8.50165 8.80655 8.50396C8.36128 8.50626 7.89295 8.63315 7.53305 8.90307C7.27928 9.09456 7.06011 9.30912 6.90092 9.59058C6.73943 9.87896 6.66329 10.1789 6.6333 10.5065C6.58947 11.0071 6.77634 11.5054 7.07856 11.8953C7.37617 12.2806 7.81913 12.5782 8.30361 12.6728C8.84115 12.7789 9.38331 12.6751 9.92085 12.742C9.84933 12.7328 9.77781 12.7236 9.7063 12.712C9.82857 12.7305 9.94623 12.7628 10.0593 12.8089C9.99468 12.7812 9.93008 12.7535 9.86548 12.7282C9.97622 12.7766 10.0777 12.8366 10.1723 12.9081C10.117 12.8666 10.0639 12.8251 10.0085 12.7812C10.0916 12.8481 10.1654 12.922 10.2323 13.0027C10.1908 12.9473 10.1492 12.8943 10.1054 12.8389C10.1769 12.9335 10.2369 13.0327 10.2854 13.1411C10.2577 13.0765 10.23 13.0119 10.2046 12.9473C10.2461 13.0465 10.2738 13.1504 10.29 13.2565C10.2808 13.185 10.2715 13.1134 10.26 13.0419C10.2738 13.155 10.2761 13.268 10.2646 13.3811C10.2738 13.3095 10.2831 13.238 10.2946 13.1665C10.2784 13.2772 10.2508 13.3857 10.2092 13.4895C10.2369 13.4249 10.2646 13.3603 10.29 13.2957C10.2438 13.4064 10.1815 13.5103 10.1077 13.6048C10.1493 13.5495 10.1908 13.4964 10.2346 13.441C10.1654 13.5264 10.087 13.6048 9.99929 13.6718C10.0547 13.6302 10.1077 13.5887 10.1631 13.5449C10.0731 13.6118 9.97853 13.6694 9.87471 13.7156C9.93931 13.6879 10.0039 13.6602 10.0685 13.6348C9.95315 13.6833 9.83318 13.7179 9.7086 13.7364C9.78012 13.7271 9.85164 13.7179 9.92316 13.7064C9.64401 13.741 9.35101 13.7202 9.07186 13.7202C8.65889 13.7202 8.24824 13.7202 7.83528 13.7202C7.73607 13.7202 7.63687 13.7202 7.53997 13.7202C7.11778 13.7202 6.71405 14.0916 6.73251 14.5277C6.75788 14.966 7.09241 15.3351 7.54459 15.3351Z" fill="#FB8A2E"/>
</svg>
