<svg width="28" height="28" viewBox="0 0 28 28" fill="none" xmlns="http://www.w3.org/2000/svg">
<g clip-path="url(#clip0_119_136)">
<path d="M26.0312 13.5703H24.2939L26.3661 8.46959C26.4916 8.15349 26.4871 7.80059 26.3536 7.48778C26.2201 7.17497 25.9684 6.9276 25.6533 6.79957C25.3382 6.67155 24.9853 6.67323 24.6714 6.80427C24.3575 6.93531 24.1082 7.18507 23.9777 7.49914L21.5113 13.5703H17.6606L15.1942 7.49914C15.0977 7.26159 14.9325 7.05823 14.7197 6.91506C14.507 6.77189 14.2564 6.69541 14 6.69541C13.7436 6.69541 13.493 6.77189 13.2803 6.91506C13.0675 7.05823 12.9023 7.26159 12.8058 7.49914L10.3394 13.5703H6.48874L4.02233 7.49914C3.95954 7.34101 3.86606 7.19688 3.74729 7.07506C3.62852 6.95323 3.48681 6.85612 3.33032 6.78933C3.17384 6.72254 3.00568 6.68739 2.83555 6.6859C2.66542 6.68441 2.49667 6.71662 2.33904 6.78067C2.18142 6.84471 2.03803 6.93933 1.91715 7.05906C1.79627 7.17879 1.70028 7.32127 1.63473 7.47828C1.56918 7.63528 1.53536 7.80371 1.53522 7.97385C1.53508 8.14399 1.56862 8.31248 1.63392 8.46959L3.70608 13.5703H1.96875C1.62687 13.5703 1.29899 13.7061 1.05725 13.9479C0.815499 14.1896 0.679688 14.5175 0.679688 14.8594C0.679688 15.2012 0.815499 15.5291 1.05725 15.7709C1.29899 16.0126 1.62687 16.1484 1.96875 16.1484H4.75345L7.21985 22.2196C7.3164 22.4571 7.48159 22.6605 7.69432 22.8037C7.90705 22.9468 8.15764 23.0233 8.41406 23.0233C8.67048 23.0233 8.92108 22.9468 9.13381 22.8037C9.34653 22.6605 9.51173 22.4571 9.60827 22.2196L12.0747 16.1484H15.9253L18.3917 22.2196C18.4883 22.4571 18.6535 22.6605 18.8662 22.8037C19.0789 22.9468 19.3295 23.0233 19.5859 23.0233C19.8424 23.0233 20.093 22.9468 20.3057 22.8037C20.5184 22.6605 20.6836 22.4571 20.7801 22.2196L23.2466 16.1484H26.0312C26.3731 16.1484 26.701 16.0126 26.9428 15.7709C27.1845 15.5291 27.3203 15.2012 27.3203 14.8594C27.3203 14.5175 27.1845 14.1896 26.9428 13.9479C26.701 13.7061 26.3731 13.5703 26.0312 13.5703ZM8.41406 18.3094L7.5361 16.1484H9.29202L8.41406 18.3094ZM13.122 13.5703L14 11.4093L14.878 13.5703H13.122ZM19.5859 18.3094L18.708 16.1484H20.4639L19.5859 18.3094Z" fill="#0B35FD"/>
</g>
<defs>
<clipPath id="clip0_119_136">
<rect width="27.5" height="27.5" fill="white" transform="translate(0.25 0.25)"/>
</clipPath>
</defs>
</svg>
