<svg width="34" height="34" viewBox="0 0 34 34" fill="none" xmlns="http://www.w3.org/2000/svg">
<path d="M6.84342 12.3309C6.84342 15.0324 8.88145 17.0705 11.583 17.0705C14.2846 17.0705 16.3226 15.0324 16.3226 12.3309C16.3226 9.62931 14.2846 7.59129 11.583 7.59129C8.88145 7.59129 6.84342 9.62931 6.84342 12.3309ZM26.4788 11.5834H23.7705V15.6459H19.708V18.3542H23.7705V22.4167H26.4788V18.3542H30.5413V15.6459H26.4788V11.5834ZM6.16634 26.4792H19.708V25.125C19.708 21.3916 16.6706 18.3542 12.9372 18.3542H10.2288C6.4954 18.3542 3.45801 21.3916 3.45801 25.125V26.4792H6.16634Z" fill="#0B35FD"/>
</svg>
