<svg width="24" height="24" viewBox="0 0 24 24" fill="none" xmlns="http://www.w3.org/2000/svg">
<path d="M11.6048 5.78199L11.8348 3.41299C11.9258 2.46099 12.8148 1.81499 13.7128 2.04699C15.0638 2.39699 16.0128 3.65199 16.0128 5.09099V8.12599C16.0128 8.80099 16.0128 9.13899 16.1588 9.38599C16.2418 9.52699 16.3558 9.64599 16.4918 9.73099C16.7318 9.88199 17.0588 9.88199 17.7118 9.88199H18.1078C19.8108 9.88199 20.6618 9.88199 21.1858 10.272C21.5788 10.565 21.8558 10.994 21.9658 11.48C22.1118 12.13 21.7848 12.943 21.1298 14.567L20.8038 15.377C20.6147 15.8461 20.5373 16.3528 20.5778 16.857C20.8098 19.731 18.5308 22.152 15.7448 21.993L5.32079 21.394C4.18179 21.329 3.61279 21.296 3.09879 20.841C2.58379 20.386 2.48679 19.917 2.29379 18.98C1.88302 16.9866 1.90177 14.9286 2.34879 12.943C2.63179 11.695 3.82379 11.023 5.05479 11.183C8.31879 11.603 11.2778 9.16399 11.6048 5.78299V5.78199Z" stroke="#555555" stroke-width="2" stroke-linecap="round" stroke-linejoin="round"/>
<path d="M7.00027 11.5L6.86327 11.957C5.97637 14.9135 6.02422 18.0717 7.00027 21" stroke="#555555" stroke-width="2" stroke-linecap="round" stroke-linejoin="round"/>
</svg>
