<svg width="18" height="18" viewBox="0 0 18 18" fill="none" xmlns="http://www.w3.org/2000/svg">
<path d="M8.68418 4.02587L8.86817 2.13077C8.94097 1.36921 9.65213 0.852442 10.3705 1.03803C11.4512 1.31802 12.2104 2.32196 12.2104 3.4731V5.90096C12.2104 6.44093 12.2104 6.71131 12.3272 6.9089C12.3936 7.0217 12.4848 7.11689 12.5936 7.18489C12.7856 7.30568 13.0471 7.30568 13.5695 7.30568H13.8863C15.2486 7.30568 15.9294 7.30568 16.3486 7.61767C16.6629 7.85205 16.8845 8.19523 16.9725 8.58401C17.0893 9.10398 16.8277 9.75435 16.3038 11.0535L16.043 11.7014C15.8917 12.0767 15.8298 12.482 15.8622 12.8854C16.0478 15.1844 14.2247 17.1211 11.996 16.9939L3.65726 16.5148C2.74611 16.4628 2.29094 16.4364 1.87976 16.0724C1.46779 15.7084 1.39019 15.3332 1.2358 14.5837C0.907202 12.9891 0.922201 11.3427 1.2798 9.75435C1.50618 8.756 2.45973 8.21843 3.44447 8.34642C6.05553 8.68241 8.4226 6.73131 8.68418 4.02667V4.02587Z" stroke="#999999" stroke-width="1.5" stroke-linecap="round" stroke-linejoin="round"/>
<path d="M5.00077 8.6001L4.89117 8.96568C4.1817 11.3307 4.21997 13.8572 5.00077 16.1997" stroke="#999999" stroke-width="1.5" stroke-linecap="round" stroke-linejoin="round"/>
</svg>
