<svg width="32" height="32" viewBox="0 0 32 32" fill="none" xmlns="http://www.w3.org/2000/svg">
<path d="M26 30H11C10.4697 29.9995 9.96133 29.7886 9.58637 29.4136C9.21141 29.0387 9.00053 28.5303 9 28V22H11V28H26V6H17V4H26C26.5303 4.00053 27.0387 4.21141 27.4136 4.58637C27.7886 4.96133 27.9995 5.46973 28 6V28C27.9995 28.5303 27.7886 29.0387 27.4136 29.4136C27.0387 29.7886 26.5303 29.9995 26 30Z" fill="#666666"/>
<path d="M17 10H24V12H17V10Z" fill="#666666"/>
<path d="M16 15H24V17H16V15Z" fill="#666666"/>
<path d="M15 20H24V22H15V20Z" fill="#666666"/>
<path d="M9 19C7.67432 18.9987 6.40332 18.4715 5.46593 17.5341C4.52853 16.5967 4.00132 15.3257 4 14V3H6V14C6 14.7956 6.31607 15.5587 6.87868 16.1213C7.44129 16.6839 8.20435 17 9 17C9.79565 17 10.5587 16.6839 11.1213 16.1213C11.6839 15.5587 12 14.7956 12 14V5C12 4.73478 11.8946 4.48043 11.7071 4.29289C11.5196 4.10536 11.2652 4 11 4C10.7348 4 10.4804 4.10536 10.2929 4.29289C10.1054 4.48043 10 4.73478 10 5V15H8V5C8 4.20435 8.31607 3.44129 8.87868 2.87868C9.44129 2.31607 10.2044 2 11 2C11.7956 2 12.5587 2.31607 13.1213 2.87868C13.6839 3.44129 14 4.20435 14 5V14C13.9987 15.3257 13.4715 16.5967 12.5341 17.5341C11.5967 18.4715 10.3257 18.9987 9 19Z" fill="#666666"/>
</svg>
