<svg width="20" height="19" viewBox="0 0 20 19" fill="none" xmlns="http://www.w3.org/2000/svg">
<path d="M11.7998 8.49998C12.1998 8.49998 12.6998 8.40002 12.9998 8.10002C13.3998 7.90002 13.5998 7.50002 13.7998 7.10002C13.9998 6.70002 13.9998 6.30003 13.8998 5.80003C13.7998 5.40003 13.5998 5 13.2998 4.7C12.9998 4.4 12.5998 4.20002 12.1998 4.10002C11.7998 4.00002 11.2998 4.1 10.8998 4.2C10.4998 4.4 10.1998 4.59998 9.89984 4.99998C9.69984 5.39998 9.49982 5.8 9.49982 6.2C9.49982 6.8 9.69985 7.3 10.0999 7.7C10.6999 8.2 11.2998 8.49998 11.7998 8.49998ZM11.7998 5.30003C11.9998 5.30003 12.1998 5.39998 12.2998 5.49998C12.4998 5.59998 12.5999 5.70001 12.5999 5.90001C12.6999 6.10001 12.6998 6.30001 12.6998 6.40001C12.6998 6.60001 12.5998 6.70001 12.3998 6.90001C12.2998 7.00001 12.0998 7.1 11.8998 7.2C11.6998 7.2 11.4998 7.20002 11.3998 7.10002C11.1998 7.00002 11.0998 6.90003 10.9998 6.80003C10.8998 6.70003 10.7998 6.50003 10.7998 6.30003C10.7998 6.10003 10.8999 5.80002 11.0999 5.60002C11.3999 5.40002 11.5998 5.30003 11.7998 5.30003ZM16.8998 10.4C16.4998 10.4 15.9998 10.5 15.6998 10.8C15.2998 11 15.0998 11.4 14.8998 11.8C14.6998 12.2 14.6998 12.6 14.7998 13.1C14.8998 13.5 15.0998 13.9 15.3998 14.2C15.6998 14.5 16.0998 14.7 16.4998 14.8C16.8998 14.9 17.3998 14.8 17.7998 14.7C18.1998 14.6 18.4998 14.3 18.7998 13.9C18.9998 13.5 19.1998 13.1 19.1998 12.7C19.1998 12.1 18.9999 11.6 18.5999 11.2C17.9999 10.6 17.3998 10.4 16.8998 10.4ZM16.8998 13.5C16.6998 13.5 16.4998 13.4 16.3998 13.3C16.1998 13.2 16.0999 13.1 16.0999 12.9C15.9999 12.7 15.9998 12.5 15.9998 12.4C15.9998 12.2 16.0998 12.1 16.2998 11.9C16.3998 11.8 16.5998 11.7 16.7998 11.6C16.9998 11.6 17.1998 11.6 17.2998 11.7C17.4998 11.8 17.5998 11.9 17.6998 12C17.7998 12.2 17.8998 12.3 17.8998 12.5C17.8998 12.7 17.7999 13 17.5999 13.2C17.3999 13.4 17.0998 13.5 16.8998 13.5ZM19.1998 4.30003C19.0998 4.20003 19.0998 4.2 18.9998 4.2C18.8998 4.2 18.8998 4.2 18.7998 4.2C18.6998 4.2 18.6999 4.2 18.5999 4.2C18.4999 4.2 18.4998 4.30003 18.3998 4.30003L9.49982 13.2C9.39982 13.3 9.2998 13.4 9.2998 13.6C9.2998 13.7 9.29984 13.8 9.39984 13.9C9.49984 14 9.49983 14.1 9.69983 14.1C9.79983 14.1 9.89982 14.2 9.99982 14.1C10.0998 14.1 10.1998 14 10.2998 13.9L19.1998 4.99998C19.2998 4.89998 19.2998 4.90003 19.2998 4.80003C19.2998 4.70003 19.2998 4.70002 19.2998 4.60002C19.2998 4.50002 19.2998 4.50001 19.2998 4.40001L19.1998 4.30003Z" fill="#01CD74"/>
<path d="M14.2996 2.90002C15.1996 2.90002 15.9996 3.00005 16.7996 3.30005C15.9996 1.40005 12.5996 0 8.49957 0C3.79957 0 0.0996094 1.80004 0.0996094 4.10004C0.0996094 6.10004 2.9996 7.80004 6.8996 8.10004C7.5996 5.10004 10.6996 2.90002 14.2996 2.90002Z" fill="#01CD74"/>
<path d="M6.79999 10.3C2.89999 9.90005 0 8.30005 0 6.30005V9.5C0 11.8 3.80002 13.6 8.40002 13.6C8.40002 13.6 8.4 13.6 8.5 13.6C7.6 12.7 6.99999 11.6 6.79999 10.3Z" fill="#01CD74"/>
<path d="M11.4 15.4C10.5 15.6 9.50002 15.7 8.40002 15.7C3.80002 15.7 0 13.9 0 11.6V14.8C0 17.1 3.80002 18.9 8.40002 18.9C12.4 18.9 15.8 17.5 16.6 15.7C15.9 15.9 15.1 16 14.3 16C13.3 15.9 12.3 15.8 11.4 15.4Z" fill="#01CD74"/>
</svg>
