<svg width="28" height="28" viewBox="0 0 28 28" fill="none" xmlns="http://www.w3.org/2000/svg">
<path d="M4.52268 1.52777C4.32008 1.52777 4.12578 1.60825 3.98253 1.75151C3.83927 1.89477 3.75879 2.08906 3.75879 2.29166V25.2083C3.75879 25.4109 3.83927 25.6052 3.98253 25.7485C4.12578 25.8917 4.32008 25.9722 4.52268 25.9722C4.72527 25.9722 4.91957 25.8917 5.06283 25.7485C5.20609 25.6052 5.28657 25.4109 5.28657 25.2083V2.29166C5.28657 2.08906 5.20609 1.89477 5.06283 1.75151C4.91957 1.60825 4.72527 1.52777 4.52268 1.52777V1.52777Z" fill="#0B35FD"/>
<path d="M23.2986 2.91805C23.1825 2.851 23.0508 2.81571 22.9167 2.81571C22.7826 2.81571 22.6508 2.851 22.5347 2.91805C21.0539 3.54055 19.458 3.84254 17.8521 3.80416C16.4685 3.70293 15.121 3.31534 13.8951 2.66597C12.7161 2.02897 11.4186 1.64153 10.0833 1.52777C8.98138 1.52897 7.89071 1.7497 6.875 2.17708V15.2778C7.87022 14.7332 8.98707 14.4494 10.1215 14.4528C11.2449 14.5642 12.3352 14.8965 13.3299 15.4305C14.7508 16.1725 16.3129 16.6047 17.9132 16.6986C19.75 16.7368 21.5735 16.3799 23.2604 15.6521C23.3864 15.5886 23.4923 15.4915 23.5665 15.3715C23.6406 15.2515 23.6801 15.1133 23.6806 14.9722V3.56735C23.6784 3.43535 23.6421 3.30614 23.5752 3.19235C23.5082 3.07855 23.413 2.98404 23.2986 2.91805V2.91805Z" fill="#0B35FD"/>
</svg>
