<svg width="20" height="20" viewBox="0 0 20 20" fill="none" xmlns="http://www.w3.org/2000/svg">
<path d="M2.72078 2.05099L18.0758 9.61699C18.1595 9.65826 18.23 9.72213 18.2793 9.8014C18.3286 9.88066 18.3548 9.97215 18.3548 10.0655C18.3548 10.1588 18.3286 10.2503 18.2793 10.3296C18.23 10.4089 18.1595 10.4727 18.0758 10.514L2.71978 18.08C2.63376 18.1223 2.53739 18.1389 2.44217 18.1279C2.34695 18.117 2.25689 18.0789 2.18271 18.0182C2.10853 17.9575 2.05335 17.8768 2.02376 17.7856C1.99416 17.6944 1.9914 17.5967 2.01578 17.504L3.53678 11.759C3.56144 11.666 3.61238 11.5822 3.68351 11.5174C3.75463 11.4527 3.84292 11.4098 3.93778 11.394L10.8188 10.247C10.8598 10.2402 10.8985 10.2233 10.9313 10.1978C10.9641 10.1723 10.9901 10.139 11.0068 10.101L11.0248 10.041C11.0341 9.98538 11.0244 9.92825 10.9972 9.87887C10.9699 9.82949 10.9268 9.79077 10.8748 9.76899L10.8188 9.75299L3.89978 8.59999C3.8051 8.58399 3.71703 8.54106 3.6461 8.47633C3.57516 8.4116 3.52437 8.32782 3.49978 8.23499L2.01578 2.62799C1.99114 2.53523 1.99372 2.43734 2.02321 2.346C2.05269 2.25467 2.10784 2.17375 2.18208 2.11291C2.25631 2.05207 2.34648 2.01388 2.44183 2.0029C2.53718 1.99192 2.63367 2.00862 2.71978 2.05099H2.72078Z" fill="white"/>
</svg>
