<svg width="20" height="20" viewBox="0 0 20 20" fill="none" xmlns="http://www.w3.org/2000/svg">
<path d="M10.0003 1.66663C5.41699 1.66663 1.66699 5.41663 1.66699 9.99996C1.66699 14.5833 5.41699 18.3333 10.0003 18.3333C14.5837 18.3333 18.3337 14.5833 18.3337 9.99996C18.3337 5.41663 14.5837 1.66663 10.0003 1.66663ZM12.9587 13.1666L9.55866 11.075C9.30866 10.925 9.15866 10.6583 9.15866 10.3666V6.45829C9.16699 6.11663 9.45033 5.83329 9.79199 5.83329C10.1337 5.83329 10.417 6.11663 10.417 6.45829V10.1666L13.617 12.0916C13.917 12.275 14.017 12.6666 13.8337 12.9666C13.6503 13.2583 13.2587 13.35 12.9587 13.1666Z" fill="white"/>
</svg>
