<svg width="24" height="24" viewBox="0 0 24 24" fill="none" xmlns="http://www.w3.org/2000/svg">
<ellipse cx="12.7996" cy="6.98224" rx="3.6258" ry="3.6258" fill="#999999"/>
<path d="M12.7871 11.9629C15.4232 11.9629 17.5684 9.81774 17.5684 7.18166C17.5684 4.54559 15.4232 2.40039 12.7871 2.40039C10.1511 2.40039 8.00586 4.54559 8.00586 7.18166C8.00586 9.81774 10.1511 11.9629 12.7871 11.9629ZM11.4668 4.27983L12.7879 5.60105L14.1093 4.27983L14.56 4.73054L13.1066 6.18377V6.9897H14.098V7.6272H13.1066V8.24323H14.098V8.88073H13.1066V9.85846H12.4691V8.88073H11.548V8.24323H12.4691V7.6272H11.548V6.9897H12.4691V6.18377L11.016 4.73054L11.4668 4.27983Z" fill="#999999"/>
<path d="M16.9123 13.7074C16.9274 13.595 16.8919 13.4847 16.8124 13.3972L16.4164 12.9606C16.2664 12.7955 16.0088 12.763 15.8161 12.8859L14.2499 13.8794L13.0986 14.3599L14.0518 14.8011H14.5573C14.837 14.8011 15.1129 14.8274 15.386 14.868L15.3779 14.8554L16.7363 13.9821C16.8336 13.9146 16.8977 13.819 16.9123 13.7074L16.9123 13.7074Z" fill="#999999"/>
<path d="M17.0926 14.5698L16.293 15.0815C16.4013 15.1169 16.5101 15.1502 16.6165 15.1923L16.7722 15.254C16.8821 15.2976 16.9846 15.38 17.0772 15.4994C17.2105 15.6714 17.2914 15.8706 17.3147 16.0798L19.3121 14.8185C19.4081 14.7513 19.4722 14.6566 19.4873 14.5458C19.5023 14.4331 19.4669 14.3226 19.3874 14.2351L18.9955 13.8032C18.8458 13.6378 18.5873 13.6057 18.3941 13.7295L17.1158 14.5512C17.1076 14.5567 17.1012 14.5643 17.0926 14.5698L17.0926 14.5698Z" fill="#999999"/>
<path d="M22.6975 14.667L22.2805 14.2074C22.1311 14.0427 21.8737 14.01 21.6814 14.132L19.6946 15.3868C19.6841 15.394 19.676 15.4033 19.6653 15.4102L17.2843 16.9177L17.2804 16.9115L16.8014 17.214C16.7766 17.2321 16.7512 17.2491 16.7248 17.2654L16.2711 17.5477C16.117 17.6434 14.125 18.3896 12.4806 18.9986L12.4215 19.0206L12.3583 19.0201C12.2146 19.0187 12.0733 18.9946 11.938 18.9485L9.90353 18.2528L10.1247 17.6053L12.1595 18.301C12.2076 18.3175 12.2574 18.3283 12.3082 18.3329C13.6369 17.8405 15.7392 17.052 15.924 16.9586L16.0644 16.8712L16.0641 16.8707L16.4146 16.6495C16.5291 16.5614 16.607 16.4371 16.6314 16.3007C16.6561 16.1633 16.623 16.0276 16.5382 15.9185C16.5161 15.89 16.5038 15.8805 16.5035 15.8805L16.3665 15.8282C15.7912 15.6004 15.1828 15.4849 14.5584 15.4849H13.9019L12.19 14.7392L11.0534 13.7847C10.2369 13.0992 9.18789 12.6942 8.09903 12.6443C7.46089 12.6144 6.83618 12.7042 6.23756 12.9086L2.40039 14.2191L4.67616 19.2063L6.69075 18.1682L11.9784 20.564C12.3907 20.7509 12.8508 20.8496 13.3081 20.8496H13.4791C14.133 20.8496 14.7583 20.6574 15.2878 20.2936L22.6215 15.2554C22.7221 15.1864 22.7845 15.0854 22.7979 14.9715C22.8106 14.861 22.775 14.7528 22.6975 14.6672L22.6975 14.667Z" fill="#999999"/>
</svg>
