<svg width="24" height="24" viewBox="0 0 24 24" fill="none" xmlns="http://www.w3.org/2000/svg">
<path d="M12.1138 14.7107C13.0553 13.9184 13.7305 12.8557 14.0476 11.6667C14.3648 10.4777 14.3088 9.21993 13.887 8.06388C13.4653 6.90783 12.6983 5.90941 11.6901 5.20395C10.6818 4.49849 9.48096 4.12012 8.25039 4.12012C7.01982 4.12012 5.81901 4.49849 4.81072 5.20395C3.80244 5.90941 3.03546 6.90783 2.61373 8.06388C2.19201 9.21993 2.13594 10.4777 2.45313 11.6667C2.77033 12.8557 3.44543 13.9184 4.38695 14.7107C2.8599 15.4015 1.5455 16.4882 0.580136 17.8583C0.495082 17.9791 0.434655 18.1155 0.402304 18.2596C0.369953 18.4038 0.366311 18.5529 0.391588 18.6984C0.416864 18.844 0.470563 18.9832 0.549619 19.108C0.628675 19.2328 0.731539 19.3408 0.852339 19.4258C1.0963 19.5976 1.39852 19.6654 1.69249 19.6144C1.98646 19.5633 2.24811 19.3976 2.41989 19.1536C3.07743 18.2181 3.95043 17.4546 4.96517 16.9275C5.97991 16.4003 7.1066 16.1251 8.25008 16.1251C9.39356 16.125 10.5203 16.4001 11.5351 16.9272C12.5498 17.4542 13.4229 18.2177 14.0805 19.1532C14.1656 19.274 14.2736 19.3768 14.3984 19.4559C14.5232 19.5349 14.6624 19.5886 14.8079 19.6139C14.9535 19.6392 15.1026 19.6355 15.2468 19.6032C15.3909 19.5708 15.5273 19.5104 15.6481 19.4253C15.7689 19.3403 15.8718 19.2323 15.9508 19.1074C16.0299 18.9826 16.0836 18.8435 16.1088 18.6979C16.1341 18.5523 16.1305 18.4032 16.0981 18.2591C16.0658 18.1149 16.0053 17.9785 15.9203 17.8577C14.9549 16.4879 13.6407 15.4014 12.1138 14.7107ZM4.50039 10.1251C4.50039 9.38337 4.72032 8.65835 5.13238 8.04167C5.54443 7.42498 6.1301 6.94433 6.81532 6.66051C7.50055 6.37668 8.25455 6.30242 8.98198 6.44711C9.70941 6.5918 10.3776 6.94896 10.902 7.4734C11.4265 7.99785 11.7836 8.66604 11.9283 9.39347C12.073 10.1209 11.9988 10.8749 11.7149 11.5601C11.4311 12.2453 10.9505 12.831 10.3338 13.2431C9.71709 13.6551 8.99207 13.8751 8.25039 13.8751C7.25617 13.8739 6.30299 13.4785 5.59997 12.7755C4.89695 12.0725 4.5015 11.1193 4.50039 10.1251ZM23.2909 19.4253C23.1701 19.5104 23.0337 19.5709 22.8896 19.6032C22.7454 19.6356 22.5963 19.6393 22.4507 19.614C22.3051 19.5887 22.166 19.535 22.0412 19.456C21.9164 19.3769 21.8083 19.274 21.7233 19.1532C21.0649 18.2186 20.1917 17.4557 19.1771 16.9288C18.1626 16.4018 17.0363 16.1262 15.8931 16.1251C15.5947 16.1251 15.3086 16.0065 15.0976 15.7955C14.8866 15.5846 14.7681 15.2984 14.7681 15.0001C14.7681 14.7017 14.8866 14.4155 15.0976 14.2046C15.3086 13.9936 15.5947 13.8751 15.8931 13.8751C16.4286 13.8744 16.9577 13.7591 17.4449 13.5369C17.9321 13.3146 18.366 12.9906 18.7175 12.5867C19.0691 12.1827 19.33 11.7081 19.4827 11.1949C19.6355 10.6817 19.6766 10.1417 19.6032 9.61123C19.5298 9.0808 19.3437 8.57223 19.0574 8.11973C18.771 7.66724 18.3911 7.28133 17.9431 6.98795C17.4951 6.69457 16.9895 6.50054 16.4603 6.4189C15.9311 6.33726 15.3905 6.36991 14.875 6.51465C14.5877 6.59544 14.2802 6.55883 14.0199 6.41286C13.7597 6.26689 13.5681 6.02352 13.4873 5.73629C13.4065 5.44906 13.4431 5.1415 13.5891 4.88127C13.7351 4.62103 13.9784 4.42945 14.2657 4.34865C15.5855 3.97604 16.9932 4.06698 18.2541 4.60632C19.515 5.14566 20.553 6.10083 21.1952 7.31265C21.8373 8.52446 22.0447 9.91973 21.7829 11.2659C21.5211 12.6122 20.8059 13.828 19.7564 14.7108C21.2833 15.4014 22.5976 16.488 23.563 17.8577C23.7347 18.1017 23.8026 18.4039 23.7515 18.6978C23.7005 18.9918 23.5348 19.2534 23.2909 19.4252V19.4253Z" fill="#DDDDDD"/>
</svg>
