<svg width="22" height="22" viewBox="0 0 22 22" fill="none" xmlns="http://www.w3.org/2000/svg">
<path d="M9.74828 2.2002C14.451 2.2002 18.2766 5.9687 18.3909 10.6598V10.8766H20.9004L17.098 14.9964L13.4015 10.8766H16.2284V10.6598C16.1152 7.16527 13.2576 4.3701 9.74828 4.3701C6.16598 4.3701 3.26183 7.28376 3.26183 10.8766C3.26183 14.4695 6.16598 17.3832 9.74828 17.3832C11.1295 17.384 12.4745 16.9416 13.5856 16.121L15.0731 17.7122C13.5549 18.9055 11.6793 19.5531 9.74828 19.551C4.97152 19.551 1.10039 15.6682 1.10039 10.8766C1.10039 6.08508 4.97152 2.2002 9.74828 2.2002ZM10.8063 5.58677V10.8766C10.805 11.157 10.6937 11.4256 10.4963 11.6246L7.11075 15.0102C6.81134 14.8165 6.52886 14.5986 6.27812 14.3457L8.6903 11.9346V5.58677H10.8063Z" fill="#999999"/>
</svg>
