<svg width="20" height="20" viewBox="0 0 20 20" fill="none" xmlns="http://www.w3.org/2000/svg">
<path d="M10 0C4.48421 0 0 4.48421 0 10C0 15.5158 4.48421 20 10 20C15.5158 20 20 15.5158 20 10C20 4.48421 15.5158 0 10 0ZM10 18.3158C5.41053 18.3158 1.68421 14.5894 1.68421 10C1.68421 5.41056 5.41056 1.68421 10 1.68421C14.5894 1.68421 18.3158 5.41056 18.3158 10C18.3158 14.5894 14.5894 18.3158 10 18.3158V18.3158Z" fill="#F53B57"/>
<path d="M15.3481 8.25278H14.4849L14.8427 6.92643C14.969 6.48425 14.6953 6.02124 14.2323 5.89481C13.7691 5.78952 13.3271 6.04225 13.2007 6.50526L11.9586 11.2632L10.8218 7.45263C10.7165 7.09475 10.3797 6.84218 10.0218 6.84218C9.66393 6.84218 9.32707 7.09477 9.22177 7.45263L8.085 11.2632L6.84293 6.50526C6.71664 6.06308 6.27447 5.78951 5.81132 5.89481C5.36914 6.0211 5.09556 6.48428 5.20087 6.92643L5.55874 8.25278H4.69555C4.23239 8.25278 3.85352 8.63165 3.85352 9.09481C3.85352 9.55797 4.23239 9.93684 4.69555 9.93684H6.00077L6.23236 10.7789H5.32717C4.86401 10.7789 4.48514 11.1577 4.48514 11.6209C4.48514 12.0841 4.86401 12.4629 5.32717 12.4629L6.6324 12.4632L7.17973 14.5685C7.28502 14.9264 7.60074 15.2001 7.97976 15.2001H8.00076C8.37964 15.2001 8.6955 14.9475 8.8008 14.5897L10.0009 10.6107L11.201 14.5897C11.3062 14.9475 11.6431 15.2001 12.001 15.2001H12.022C12.4009 15.2001 12.7377 14.9264 12.822 14.5685L13.3694 12.4632H14.7167C15.1799 12.4632 15.5588 12.0844 15.5588 11.6212C15.5588 11.158 15.1799 10.7792 14.7167 10.7792H13.8115L14.0431 9.93714H15.3483C15.8115 9.93714 16.1904 9.55826 16.1904 9.0951C16.1904 8.63195 15.8114 8.25292 15.3482 8.25292L15.3481 8.25278Z" fill="#F53B57"/>
</svg>
