<svg width="20" height="20" viewBox="0 0 20 20" fill="none" xmlns="http://www.w3.org/2000/svg">
<path d="M10 0C4.48421 0 0 4.48421 0 10C0 15.5158 4.48421 20 10 20C15.5158 20 20 15.5158 20 10C20 4.48421 15.5158 0 10 0ZM15.4737 9.93684H14.1263L13.8947 10.8H14.8421C15.3262 10.8 15.7053 11.1789 15.7053 11.6632C15.7053 12.1474 15.3264 12.5264 14.8421 12.5264H13.4525L12.8841 14.6738C12.7788 15.0527 12.4419 15.3055 12.063 15.3264H12.042C11.6632 15.3264 11.3263 15.0738 11.221 14.716L9.99993 10.6318L8.77888 14.716C8.67359 15.0739 8.3367 15.3264 7.95783 15.3264H7.93683C7.55796 15.3264 7.22108 15.0527 7.11578 14.6738L6.54732 12.5264H5.1578C4.67363 12.5264 4.29461 12.1476 4.29461 11.6632C4.29461 11.1791 4.67348 10.8 5.1578 10.8H6.08416L5.85257 9.93684H4.5052C4.02103 9.93684 3.64201 9.55797 3.64201 9.07365C3.64201 8.58947 4.02088 8.21045 4.5052 8.21045H5.38941L5.03154 6.8421C4.90524 6.37895 5.17898 5.89477 5.64199 5.78947C6.10515 5.68418 6.58932 5.95791 6.69462 6.39992L8 11.2635L9.15793 7.36872C9.26322 7.01085 9.60011 6.75827 9.97898 6.75827C10.3579 6.75827 10.6947 7.01086 10.8 7.36872L12 11.2635L13.2842 6.4003C13.4105 5.93714 13.8736 5.66338 14.3368 5.78985C14.8 5.91614 15.0737 6.37932 14.9473 6.84248L14.5894 8.21083L15.4737 8.21068C15.9579 8.21068 16.3369 8.58955 16.3369 9.07388C16.3367 9.55805 15.9579 9.93707 15.4737 9.93707L15.4737 9.93684Z" fill="#F53B57"/>
</svg>
