<svg width="27" height="27" viewBox="0 0 27 27" fill="none" xmlns="http://www.w3.org/2000/svg">
<path d="M11.172 10.7364C11.172 11.5076 10.5467 12.1329 9.77546 12.1329C9.00424 12.1329 8.37891 11.5076 8.37891 10.7364C8.37891 9.96518 9.00424 9.33984 9.77546 9.33984C10.5467 9.33984 11.172 9.96518 11.172 10.7364Z" fill="#00D8D6"/>
<path d="M11.1724 20.5121V16.788L12.1034 16.3225V13.9949C12.1034 12.9666 11.2696 12.1328 10.2413 12.1328H9.31031C8.28202 12.1328 7.44824 12.9666 7.44824 13.9949V16.3225L8.37928 16.788V20.5121H11.1724Z" fill="#00D8D6"/>
<path d="M18.6202 6.54596C18.6202 7.31718 17.9949 7.94251 17.2237 7.94251C16.4525 7.94251 15.8271 7.31718 15.8271 6.54596C15.8271 5.77475 16.4525 5.14941 17.2237 5.14941C17.9949 5.14941 18.6202 5.77475 18.6202 6.54596Z" fill="#00D8D6"/>
<path d="M14.8965 9.80543V12.133L15.8275 12.5985V16.3227H18.6206V12.5985L19.5516 12.133V9.80543C19.5516 8.77714 18.7179 7.94336 17.6896 7.94336H16.7586C15.7303 7.94336 14.8965 8.77714 14.8965 9.80543Z" fill="#00D8D6"/>
<path d="M26.0685 2.35651C26.0685 3.12772 25.4432 3.75306 24.6719 3.75306C23.9007 3.75306 23.2754 3.12772 23.2754 2.35651C23.2754 1.5853 23.9007 0.959961 24.6719 0.959961C25.4432 0.959961 26.0685 1.5853 26.0685 2.35651Z" fill="#00D8D6"/>
<path d="M25.1378 3.75391H24.2068C23.1785 3.75391 22.3447 4.58769 22.3447 5.61597V7.94355L23.2758 8.40907V12.1332H26.0689V8.40907L26.9999 7.94355V5.61597C26.9999 4.58769 26.1661 3.75391 25.1378 3.75391Z" fill="#00D8D6"/>
<path d="M3.72376 13.9942C3.72376 14.7654 3.09843 15.3908 2.32721 15.3908C1.556 15.3908 0.930664 14.7654 0.930664 13.9942C0.930664 13.223 1.556 12.5977 2.32721 12.5977C3.09843 12.5977 3.72376 13.223 3.72376 13.9942Z" fill="#00D8D6"/>
<path d="M4.65516 17.2537C4.65516 16.2254 3.82138 15.3916 2.7931 15.3916H1.86207C0.83378 15.3916 0 16.2254 0 17.2537V19.5812L0.931033 20.0468V23.7709H3.72413V20.0468L4.65516 19.5812V17.2537Z" fill="#00D8D6"/>
<path d="M0 24.7012H4.65516V26.5632H0V24.7012Z" fill="#00D8D6"/>
<path d="M7.44824 21.4434H12.1034V26.564H7.44824V21.4434Z" fill="#00D8D6"/>
<path d="M14.8965 17.2539H19.5516V26.5642H14.8965V17.2539Z" fill="#00D8D6"/>
<path d="M22.3447 13.0645H26.9999V26.5644H22.3447V13.0645Z" fill="#00D8D6"/>
<path d="M14.6553 4.03153L15.9104 0.61911L12.3277 0L13.026 1.20949L0.931641 8.19224L1.86267 9.80473L13.9571 2.82199L14.6553 4.03153Z" fill="#00D8D6"/>
</svg>
