<svg width="26" height="28" viewBox="0 0 26 28" fill="none" xmlns="http://www.w3.org/2000/svg">
<path d="M9.43915 11.506C4.26936 11.4479 5.02444 4.56455 5.02444 4.56455C5.22785 -0.024362 9.09046 0.00457845 9.46814 0.00457845C9.84577 -0.0243922 13.7086 -0.0535664 13.9118 4.56455C13.9118 4.56455 14.6669 11.4479 9.49713 11.506H9.46816H9.43915ZM9.46832 23.5011H12.4017C11.9369 21.2067 12.6051 18.7379 14.3766 16.9662C15.2187 16.1241 16.2064 15.514 17.3099 15.1946C17.2228 15.1364 17.1357 15.0785 17.0486 15.0203C15.0445 13.7424 12.7791 12.6678 12.7791 12.6678L10.9785 18.3314L9.93291 15.3689C11.7627 12.813 9.81682 12.6679 9.43919 12.6679C9.09073 12.6679 7.11564 12.8132 8.94547 15.3689L7.8999 18.3314L6.09924 12.6678C6.09924 12.6678 3.86282 13.7716 1.82981 15.0203C0.319481 15.9788 0.0291475 16.9952 0 18.4766V23.5013L9.46832 23.5011ZM15.0738 26.0568L15.0156 25.9986C12.9534 23.6751 13.0407 20.1027 15.277 17.8664C17.6005 15.5428 21.3762 15.5428 23.6706 17.8664C25.9942 20.1899 25.9942 23.9656 23.6706 26.26C21.7247 28.206 18.7332 28.5254 16.4678 27.1895C15.5675 27.8575 14.609 27.9738 13.941 27.8866C13.7086 27.8577 13.6797 27.5382 13.8829 27.4511C14.4639 27.1316 14.8414 26.5215 15.0738 26.0568ZM17.7458 24.6627C18.0363 24.808 18.3558 24.8661 18.6753 24.9241C18.9366 24.953 18.9366 24.9822 18.9366 25.2436V25.592C18.9366 25.7373 19.0238 25.8244 19.169 25.8244H19.6917C19.837 25.8244 19.8951 25.7373 19.8951 25.592V25.0983C19.8951 24.9241 19.9532 24.837 20.1275 24.8078C20.5051 24.7207 20.7954 24.5173 21.057 24.227C21.7249 23.4137 21.4636 22.2229 20.5343 21.7002C20.2438 21.526 19.9243 21.4097 19.6048 21.2936C19.4306 21.2065 19.2563 21.1194 19.1111 21.0031C18.8206 20.7707 18.8787 20.3641 19.2272 20.2189C19.3143 20.1899 19.4306 20.1607 19.5467 20.1607C19.9533 20.1317 20.3309 20.2189 20.7083 20.3931C20.8825 20.4802 20.9407 20.4512 21.0278 20.277C21.0859 20.0736 21.1439 19.8704 21.202 19.667C21.231 19.5217 21.202 19.4346 21.0568 19.3765C20.8244 19.2604 20.563 19.2022 20.3307 19.1441C19.9822 19.0859 20.0112 19.0859 19.9822 18.7664C19.9822 18.3017 19.9822 18.3017 19.5175 18.3017H19.3141C19.0817 18.3017 19.0527 18.3598 19.0527 18.563V18.8536C19.0527 19.1441 19.0527 19.1441 18.7622 19.2602C18.0651 19.5215 17.6585 19.9863 17.6005 20.7414C17.5716 21.4093 17.92 21.8451 18.4427 22.1645C18.7912 22.368 19.1398 22.484 19.5173 22.6293C19.6625 22.6874 19.7786 22.7746 19.8949 22.8617C20.2434 23.1522 20.1854 23.6168 19.7788 23.7912C19.5754 23.8783 19.3432 23.9073 19.1109 23.8783C18.7332 23.8201 18.3848 23.733 18.0653 23.5588C17.8619 23.4717 17.8039 23.4717 17.7458 23.7041C17.6877 23.8783 17.6297 24.0525 17.6005 24.2559C17.4845 24.4885 17.5134 24.5466 17.7458 24.6627Z" fill="#00D8D6"/>
</svg>
