<svg width="20" height="20" viewBox="0 0 20 20" fill="none" xmlns="http://www.w3.org/2000/svg">
<path d="M13.4983 17.4915V18.62C13.4983 18.829 13.3273 19 13.1183 19H7.6576C7.44861 19 7.27764 18.829 7.27764 18.62V15.7472L5.79932 13.0225C4.52253 10.6664 4.79227 7.80485 6.4872 5.73408C6.62016 5.57074 7.02301 5.6808 7.02301 5.6808L8.93438 12.1028V7.71004C8.93438 6.88922 9.60317 6.22043 10.424 6.22043C11.2448 6.22043 11.9136 6.88922 11.9136 7.71004V11.3656C11.9136 12.3689 12.172 13.3645 12.6584 14.2461C13.2058 15.238 13.4983 16.359 13.4983 17.4915L13.4983 17.4915Z" fill="#999999"/>
<path d="M14.1292 7.72901V11.1414C14.1292 11.3504 13.9583 11.5214 13.7493 11.5214C13.3731 11.5214 13.0083 11.4377 12.6738 11.2858V8.86902L13.0805 8.61439C13.4756 8.3674 13.8251 8.06714 14.1292 7.729L14.1292 7.72901Z" fill="#999999"/>
<path d="M6.10755 5.06185C6.15701 5.02384 6.21014 4.99346 6.26723 4.96308C6.29761 4.94781 6.32799 4.93652 6.35471 4.92507C6.39653 4.90615 6.43836 4.89469 6.48385 4.87943C6.51041 4.87179 6.53331 4.86416 6.55987 4.8605C6.63208 4.84523 6.70429 4.83776 6.78031 4.83776C7.04257 4.83776 7.30085 4.92889 7.50235 5.0962C7.57074 5.14948 7.62768 5.21024 7.67714 5.27863C7.69607 5.30137 7.70752 5.32809 7.7266 5.35083C7.75698 5.39648 7.78354 5.4383 7.80644 5.48761C7.82171 5.51799 7.833 5.55218 7.84445 5.58256C7.85972 5.6282 7.87483 5.67003 7.88628 5.71934C7.89391 5.75353 7.90155 5.78391 7.9052 5.8181C7.91284 5.87138 7.91666 5.9245 7.91666 5.97778C7.91666 5.99671 7.92047 6.0158 7.92047 6.03854L8.25112 7.14436C8.25494 7.13291 8.25876 7.12544 8.26258 7.11398C8.29295 7.0114 8.32715 6.90882 8.36898 6.81371C8.37661 6.79844 8.38424 6.78333 8.39172 6.76425C8.43736 6.6693 8.48667 6.57801 8.53995 6.49451C8.54376 6.48688 8.54758 6.47924 8.55521 6.47177C8.61597 6.3843 8.68054 6.3008 8.75275 6.22096C8.76802 6.20569 8.77931 6.19058 8.79457 6.17531C8.86678 6.09929 8.9428 6.02708 9.0263 5.96251C9.04157 5.95106 9.05668 5.93977 9.07195 5.92831C9.1556 5.86374 9.24292 5.80665 9.33803 5.75352C9.34185 5.74971 9.34566 5.74971 9.34948 5.74589C9.44443 5.69261 9.54701 5.65094 9.64975 5.61293C9.66868 5.6053 9.68776 5.59766 9.70669 5.59019C9.80927 5.55599 9.91186 5.52943 10.0183 5.51035C10.0372 5.50653 10.0601 5.50272 10.079 5.50272C10.193 5.48379 10.3071 5.47234 10.4248 5.47234C11.6636 5.47234 12.6744 6.48321 12.6744 7.72201V7.98427C13.9094 7.2091 14.6847 5.84864 14.6847 4.33249C14.6843 1.93808 12.7463 0 10.3637 0C7.98101 0 6.04297 1.93796 6.04297 4.32069C6.04297 4.5715 6.06571 4.81851 6.10754 5.06182L6.10755 5.06185Z" fill="#999999"/>
</svg>
