<svg width="22" height="23" viewBox="0 0 22 23" fill="none" xmlns="http://www.w3.org/2000/svg">
<path d="M15.125 19.1859L13.3444 17.4053L12.375 18.3746L15.125 21.1246L20.625 15.6246L19.6556 14.6553L15.125 19.1859Z" fill="#00D8D6"/>
<path d="M10.3125 19.7502H5.5V3.25023H11V7.37523C11.0011 7.73957 11.1463 8.08868 11.4039 8.3463C11.6616 8.60393 12.0107 8.74915 12.375 8.75023H16.5V12.8752H17.875V7.37523C17.8774 7.28488 17.8602 7.19507 17.8246 7.112C17.789 7.02892 17.7359 6.95454 17.6688 6.89398L12.8563 2.08148C12.7957 2.01435 12.7214 1.96114 12.6383 1.92553C12.5552 1.88992 12.4654 1.87276 12.375 1.87523H5.5C5.13566 1.87632 4.78656 2.02154 4.52893 2.27916C4.2713 2.53679 4.12609 2.8859 4.125 3.25023V19.7502C4.12609 20.1146 4.2713 20.4637 4.52893 20.7213C4.78656 20.9789 5.13566 21.1241 5.5 21.1252H10.3125V19.7502ZM12.375 3.52523L16.225 7.37523H12.375V3.52523Z" fill="#00D8D6"/>
<path d="M7.5625 10.8125H14.4375V12.1875H7.5625V10.8125Z" fill="#00D8D6"/>
<path d="M7.5625 14.9375H14.4375V16.3125H7.5625V14.9375Z" fill="#00D8D6"/>
</svg>
