<svg width="22" height="23" viewBox="0 0 22 23" fill="none" xmlns="http://www.w3.org/2000/svg">
<path d="M19.9375 21.8125C19.7812 21.8124 19.6297 21.7591 19.5078 21.6613L16.2594 19.0625H13.75C13.5677 19.0625 13.3928 18.9901 13.2639 18.8611C13.1349 18.7322 13.0625 18.5573 13.0625 18.375V14.9375C13.0625 14.7552 13.1349 14.5803 13.2639 14.4514C13.3928 14.3224 13.5677 14.25 13.75 14.25H16.2594L19.5085 11.6512C19.6096 11.5705 19.7314 11.52 19.8599 11.5054C19.9885 11.4908 20.1185 11.5127 20.2352 11.5688C20.3518 11.6248 20.4502 11.7125 20.5192 11.822C20.5881 11.9314 20.6248 12.0581 20.625 12.1875V21.125C20.625 21.3073 20.5526 21.4822 20.4236 21.6111C20.2947 21.7401 20.1198 21.8125 19.9375 21.8125ZM14.4375 17.6875H16.5C16.6563 17.6876 16.8078 17.741 16.9297 17.8387L19.25 19.695V13.6175L16.929 15.4737C16.8073 15.5714 16.656 15.6247 16.5 15.625H14.4375V17.6875Z" fill="#00D8D6"/>
<path d="M11 19.7502H5.5V3.25023H11V7.37523C11.0011 7.73957 11.1463 8.08868 11.4039 8.3463C11.6616 8.60393 12.0107 8.74915 12.375 8.75023H16.5V10.8127H17.875V7.37523C17.8774 7.28488 17.8602 7.19507 17.8246 7.112C17.789 7.02892 17.7359 6.95454 17.6688 6.89398L12.8563 2.08148C12.7957 2.01435 12.7214 1.96114 12.6383 1.92553C12.5552 1.88992 12.4654 1.87276 12.375 1.87523H5.5C5.13566 1.87632 4.78656 2.02154 4.52893 2.27916C4.2713 2.53679 4.12609 2.8859 4.125 3.25023V19.7502C4.12609 20.1146 4.2713 20.4637 4.52893 20.7213C4.78656 20.9789 5.13566 21.1241 5.5 21.1252H11V19.7502ZM12.375 3.52523L16.225 7.37523H12.375V3.52523Z" fill="#00D8D6"/>
<path d="M7.5625 10.8125H14.4375V12.1875H7.5625V10.8125Z" fill="#00D8D6"/>
<path d="M7.5625 14.9375H11V16.3125H7.5625V14.9375Z" fill="#00D8D6"/>
</svg>
