<svg width="30" height="29" viewBox="0 0 30 29" fill="none" xmlns="http://www.w3.org/2000/svg">
<path d="M23.628 23.5035L16.578 27.5794C15.1457 28.4088 13.4849 28.757 11.8401 28.5725L5.22934 27.838C5.17947 27.832 5.1289 27.8338 5.07948 27.8433L0 28.769V22.6601H3.62077C3.71359 22.6601 3.80481 22.6352 3.88447 22.5876L5.24481 21.7704H5.24504C5.96849 21.3368 6.79633 21.1079 7.63989 21.1084H8.31232C8.90554 21.1091 9.49325 21.2216 10.0451 21.4395L11.7054 22.1069V22.1066C11.7661 22.1316 11.8312 22.1438 11.8968 22.1429H15.5176C15.8873 22.1429 16.2288 22.3401 16.4135 22.6602C16.5982 22.9802 16.5982 23.3746 16.4135 23.6947C16.2288 24.0147 15.8873 24.2119 15.5176 24.2119H10.3451V25.2464H15.7813C16.2355 25.2469 16.6816 25.1273 17.0744 24.8998L22.5935 21.7137C22.8316 21.5624 23.1209 21.5148 23.3946 21.5818C23.6685 21.649 23.9031 21.825 24.0441 22.069C24.1852 22.3131 24.2206 22.6041 24.142 22.8749C24.0635 23.1456 23.8779 23.3726 23.628 23.5033L23.628 23.5035Z" fill="#00D8D6"/>
<path d="M29.9994 0V6.1089H26.3786C26.2858 6.1089 26.1946 6.13384 26.1149 6.18141L24.7546 6.99861H24.7544C24.0309 7.43227 23.2031 7.6611 22.3595 7.66063H21.6871C21.0939 7.65994 20.5061 7.54748 19.9543 7.32949L18.294 6.66215V6.66238C18.2333 6.63744 18.1682 6.62521 18.1026 6.62613H14.4818C14.1121 6.62613 13.7706 6.42893 13.5859 6.10888C13.4011 5.78882 13.4011 5.39442 13.5859 5.07437C13.7706 4.75432 14.1121 4.55712 14.4818 4.55712H19.6543V3.52261H14.2181C13.7639 3.52215 13.3178 3.64177 12.925 3.86922L7.40587 7.05538C7.1678 7.20663 6.87845 7.2542 6.60481 7.18723C6.33094 7.12004 6.09633 6.94408 5.95526 6.7C5.81419 6.45592 5.77884 6.16496 5.85735 5.89409C5.93586 5.62346 6.12152 5.39646 6.37137 5.26576L13.4214 1.18987C14.8537 0.360435 16.5145 0.0121909 18.1593 0.196687L24.7701 0.931245C24.8199 0.937248 24.8705 0.935401 24.9199 0.925934L29.9994 0Z" fill="#00D8D6"/>
<path d="M23.8789 18.3425L24.2119 19C25.3847 18.2255 26.275 16.9975 26.7209 15.539C27.1668 14.0804 27.139 12.4878 26.6424 11.0505L27.6525 11.4678L27.8789 10.7583L26.1097 10.0228C26.0266 9.98838 25.935 9.99312 25.8551 10.0358C25.7751 10.0785 25.7133 10.1557 25.6832 10.2504L25.039 12.2673L25.6646 12.5264L26.0347 11.3654C26.4631 12.6304 26.4814 14.028 26.0863 15.3069C25.6911 16.586 24.9084 17.6622 23.8789 18.3424L23.8789 18.3425Z" fill="#00D8D6"/>
<path d="M2 18.2435L3.76924 18.9772C3.85232 19.0116 3.94388 19.0069 4.02385 18.9642C4.10382 18.9215 4.16565 18.8443 4.19568 18.7496L4.83989 16.7327L4.21398 16.4736L3.84313 17.6356V17.6358C3.41132 16.3709 3.39157 14.9716 3.78724 13.6915C4.1829 12.4112 4.96786 11.335 6 10.6575L5.66705 10C4.49176 10.7717 3.59934 11.9994 3.15315 13.4591C2.70681 14.9185 2.73653 16.5123 3.23654 17.9489L2.22772 17.5316L2 18.2435Z" fill="#00D8D6"/>
<path d="M16.9191 14.3982L17.1327 13.654H15.8282L16.0773 14.3982H16.9191Z" fill="#00D8D6"/>
<path d="M16.3347 15.167L16.5306 15.7521L16.6985 15.167H16.3347Z" fill="#00D8D6"/>
<path d="M15.2635 14.3982L15.0393 13.7284L14.8151 14.3982H15.2635Z" fill="#00D8D6"/>
<path d="M14.0013 14.3982L14.2504 13.654H12.9459L13.1595 14.3982H14.0013Z" fill="#00D8D6"/>
<path d="M13.3801 15.167L13.548 15.7521L13.7439 15.167H13.3801Z" fill="#00D8D6"/>
<path fill-rule="evenodd" clip-rule="evenodd" d="M21 14C21 17.3048 18.3048 20 15 20C11.6952 20 9 17.3048 9 14C9 10.6952 11.6944 8 15 8C18.3048 8 21 10.6944 21 14ZM12.3711 11.6509C12.3126 11.4468 12.0989 11.3286 11.8939 11.3869C11.689 11.4452 11.5703 11.658 11.6288 11.8621L11.9224 12.8852H11.6201C11.4069 12.8852 11.2341 13.0573 11.2341 13.2696C11.2341 13.4819 11.4069 13.654 11.6201 13.654H12.143L12.3566 14.3982H11.6201C11.4069 14.3982 11.2341 14.5703 11.2341 14.7826C11.2341 14.9949 11.4069 15.167 11.6201 15.167H12.5772L12.8617 16.1584C12.9032 16.3034 12.9904 16.4314 13.1103 16.5235C13.2302 16.6157 13.3766 16.6671 13.5281 16.6704C13.6795 16.6736 13.828 16.6285 13.9519 16.5416C14.0756 16.4547 14.1682 16.3307 14.216 16.1876L14.5577 15.167H15.5209L15.8625 16.1873L15.8626 16.1876C15.9104 16.3307 16.003 16.4547 16.1267 16.5416C16.2506 16.6285 16.3991 16.6736 16.5505 16.6704C16.702 16.6671 16.8484 16.6157 16.9683 16.5235C17.0882 16.4314 17.1754 16.3034 17.2169 16.1584L17.217 16.1583L17.5014 15.167H18.4585C18.6717 15.167 18.8445 14.9949 18.8445 14.7826C18.8445 14.5703 18.6717 14.3982 18.4585 14.3982H17.722L17.9356 13.654H18.4585C18.6717 13.654 18.8445 13.4819 18.8445 13.2696C18.8445 13.0573 18.6717 12.8852 18.4585 12.8852H18.1562L18.4498 11.8621C18.5083 11.658 18.3896 11.4452 18.1847 11.3869C17.9797 11.3286 17.766 11.4468 17.7074 11.6509L17.3533 12.8852H15.5708L15.4055 12.3915C15.3529 12.2345 15.2054 12.1286 15.0393 12.1286C14.8732 12.1286 14.7257 12.2345 14.6731 12.3915L14.5078 12.8852H12.7253L12.3711 11.6509Z" fill="#00D8D6"/>
</svg>
