<svg width="30" height="30" viewBox="0 0 30 30" fill="none" xmlns="http://www.w3.org/2000/svg">
<g clip-path="url(#clip0_617_352)">
<path d="M25.6411 19.0108H25.9253C26.9359 19.0108 27.7568 18.1899 27.7568 17.1793C27.7568 16.1687 26.9358 15.3477 25.9253 15.3477H20.1148C19.7674 15.3477 19.5465 15.0636 19.578 14.7162C19.9569 12.1899 20.4937 11.3372 20.7463 8.71628C20.999 6.18993 17.3991 5.74783 16.8938 8.08476C15.9149 12.4427 12.3149 15.3478 11.1465 16.232C10.8938 16.4215 10.7676 16.6741 10.7676 16.99V27.4109C10.7676 27.7898 10.9887 28.1056 11.3359 28.2636C12.5989 28.8004 14.0832 30.0005 18.3779 30.0005H25.0726C26.0832 30.0005 26.9041 29.1795 26.9041 28.1689C26.9041 27.1583 26.0831 26.3374 25.0726 26.3374H25.2937C26.2094 26.3374 27.0621 25.6741 27.1886 24.7584C27.3465 23.6531 26.4623 22.6742 25.357 22.6742H25.5782C26.4938 22.6742 27.3465 22.0109 27.473 21.0953C27.5992 19.9582 26.7467 19.0108 25.6414 19.0108L25.6411 19.0108Z" fill="#00D8D6"/>
<path d="M8.43152 16.4844H3.91567C3.41036 16.4844 3 16.895 3 17.4V27.0631C3 27.5684 3.41059 27.9788 3.91567 27.9788L8.43152 27.979C8.93683 27.979 9.34718 27.5684 9.34718 27.0633V17.4003C9.34718 16.8952 8.93682 16.4846 8.43152 16.4846V16.4844ZM6.18933 25.958C5.65252 25.958 5.21045 25.5159 5.21045 24.9791C5.21045 24.4423 5.65253 24.0002 6.18933 24.0002C6.72613 24.0002 7.16821 24.4423 7.16821 24.9791C7.16821 25.5159 6.72612 25.958 6.18933 25.958Z" fill="#00D8D6"/>
<path d="M18.7584 4.07358C19.3267 4.07358 19.769 3.63149 19.769 3.06295L19.7688 1.01063C19.7688 0.442326 19.3267 0 18.7582 0C18.1899 0 17.7476 0.442089 17.7476 1.01063V3.03166C17.7163 3.59996 18.1899 4.07358 18.7584 4.07358H18.7584Z" fill="#00D8D6"/>
<path d="M13.9582 5.39992C14.1476 5.58936 14.4318 5.68408 14.6844 5.68408C14.9371 5.68408 15.2212 5.58936 15.4107 5.39992C15.8213 4.98933 15.8213 4.35783 15.4107 3.94719L13.958 2.49447C13.5474 2.08388 12.9159 2.08388 12.5052 2.49447C12.0946 2.90505 12.0946 3.53656 12.5052 3.94719L13.9582 5.39992Z" fill="#00D8D6"/>
<path d="M12.977 9.69508C13.5453 9.69508 13.9876 9.25299 13.9876 8.68446C13.9876 8.11615 13.5455 7.67383 12.977 7.67383H10.9559C10.3876 7.67383 9.94531 8.11592 9.94531 8.68446C9.94531 9.25276 10.3874 9.69508 10.9559 9.69508H12.977Z" fill="#00D8D6"/>
<path d="M23.3359 8.84219C23.3359 9.41049 23.778 9.85282 24.3466 9.85282H26.3676C26.9359 9.85282 27.3782 9.41073 27.3782 8.84219C27.3782 8.27389 26.9361 7.83156 26.3676 7.83156H24.3466C23.8095 7.80007 23.3359 8.27365 23.3359 8.84219Z" fill="#00D8D6"/>
<path d="M22.7356 5.81007C22.9882 5.81007 23.2724 5.71535 23.4618 5.52591L24.9146 4.07319C25.3252 3.6626 25.3252 3.03109 24.9146 2.62046C24.504 2.20982 23.8725 2.20987 23.4618 2.62046L22.0091 4.07319C21.5985 4.48378 21.5985 5.11528 22.0091 5.52591C22.2303 5.68385 22.4829 5.81007 22.7356 5.81007Z" fill="#00D8D6"/>
</g>
<defs>
<clipPath id="clip0_617_352">
<rect width="30" height="30" fill="white"/>
</clipPath>
</defs>
</svg>
