<svg width="21" height="21" viewBox="0 0 21 21" fill="none" xmlns="http://www.w3.org/2000/svg">
<path d="M8.6725 9.68047H10.5205C11.0665 9.68047 11.5074 9.23949 11.5074 8.69351V5.92153C11.5074 5.37555 11.0665 4.93457 10.5205 4.93457H8.6725C8.12653 4.93457 7.68555 5.37555 7.68555 5.92153V8.69351C7.68548 9.23956 8.12646 9.68054 8.6725 9.68054V9.68047Z" fill="#00D8D6"/>
<path d="M16.1065 11.3193H8.46251C8.02153 11.3193 7.68555 11.6763 7.68555 12.0963C7.68555 12.5373 8.04251 12.8733 8.46251 12.8733H16.1065C16.5475 12.8733 16.8835 12.5163 16.8835 12.0963C16.9045 11.6553 16.5475 11.3193 16.1064 11.3193H16.1065Z" fill="#00D8D6"/>
<path d="M16.107 4.91406H13.65C13.209 4.91406 12.873 5.27103 12.873 5.69103C12.873 6.11103 13.23 6.46799 13.65 6.46799H16.107C16.548 6.46799 16.884 6.11103 16.884 5.69103C16.884 5.27103 16.5481 4.91406 16.107 4.91406Z" fill="#00D8D6"/>
<path d="M16.107 8.12695H13.65C13.209 8.12695 12.873 8.48392 12.873 8.90392C12.873 9.3449 13.23 9.68088 13.65 9.68088H16.107C16.548 9.68088 16.884 9.32392 16.884 8.90392C16.9051 8.46301 16.5481 8.12695 16.107 8.12695Z" fill="#00D8D6"/>
<path d="M16.1065 14.5107H8.46251C8.02153 14.5107 7.68555 14.8677 7.68555 15.2877C7.68555 15.7287 8.04251 16.0647 8.46251 16.0647H16.1065C16.5475 16.0647 16.8835 15.7078 16.8835 15.2877C16.9045 14.8678 16.5475 14.5107 16.1064 14.5107H16.1065Z" fill="#00D8D6"/>
<path d="M17.8084 1.46973H6.78339C5.31339 1.46973 4.11639 2.66669 4.11639 4.13673V12.9777L1.89039 12.9778C1.13441 12.9778 0.525391 13.5868 0.525391 14.3428V16.8418C0.525391 18.3118 1.72236 19.5088 3.19239 19.5088H17.7874C19.2574 19.5088 20.4544 18.3118 20.4544 16.8418L20.4545 4.1578C20.4754 2.66674 19.2785 1.46979 17.8085 1.46979L17.8084 1.46973ZM4.11639 17.0517C4.11639 17.5557 3.71737 17.9548 3.21336 17.9548C2.60434 17.9548 2.10032 17.4507 2.10032 16.8417L2.10039 14.5527H4.11639L4.11639 17.0517ZM18.9004 16.8417C18.9004 17.4507 18.3964 17.9548 17.7874 17.9548H5.50236C5.60736 17.6817 5.67038 17.3667 5.67038 17.0517V4.15773C5.67038 3.54871 6.1744 3.04469 6.78342 3.04469H17.7874C18.3964 3.04469 18.9005 3.54871 18.9005 4.15773L18.9004 16.8417Z" fill="#00D8D6"/>
</svg>
